# This file uses centimeters as units for non-parametric coordinates.

mtllib ApartmentFacade.mtl
g default
v -12.181772 0.587835 1.262244
v -11.539597 1.397181 1.262244
v -11.539597 2.607181 1.262244
v -11.539597 4.379222 1.262244
v -11.539597 5.589222 1.262244
v -10.789597 5.589222 1.262244
v -10.789597 4.379222 1.262244
v -10.212410 4.379222 1.262244
v -10.212410 5.589222 1.262244
v -9.462410 5.589222 1.262244
v -9.462410 4.379222 1.262244
v -8.902773 4.379222 1.262244
v -8.902773 5.589222 1.262244
v -8.152773 5.589222 1.262244
v -8.152773 4.379222 1.262244
v -7.471773 6.707834 1.262244
v -12.181772 6.707834 1.262244
v -10.789597 2.607181 1.262244
v -10.789597 1.397181 1.262244
v -10.212410 1.397181 1.262244
v -10.212410 2.607181 1.262244
v -9.462410 2.607181 1.262244
v -9.057253 2.622950 1.262244
v -8.157253 2.622950 1.262244
v -8.157253 0.587835 1.262244
v -7.471773 0.587835 1.262244
v -9.462410 1.397181 1.262244
v -9.057253 0.587835 1.262244
v -12.181772 0.587835 1.232244
v -12.181772 6.707834 1.232244
v -9.057253 0.587835 1.232244
v -9.057253 2.622950 1.232244
v -8.157253 2.622950 1.232244
v -8.157253 0.587835 1.232244
v -7.471773 0.587835 1.232244
v -7.471773 6.707834 1.232244
v -8.152773 5.589222 1.232244
v -8.902773 5.589222 1.232244
v -8.902773 4.379222 1.232244
v -9.462410 4.379222 1.232244
v -9.462410 5.589222 1.232244
v -10.212410 5.589222 1.232244
v -10.212410 4.379222 1.232244
v -10.789597 4.379222 1.232244
v -10.789597 5.589222 1.232244
v -11.539597 5.589222 1.232244
v -11.539597 4.379222 1.232244
v -11.539597 2.607181 1.232244
v -11.539597 1.397181 1.232244
v -10.789597 1.397181 1.232244
v -10.212410 1.397181 1.232244
v -9.462410 1.397181 1.232244
v -9.462410 2.607181 1.232244
v -8.152773 4.379222 1.232244
v -10.212410 2.607181 1.232244
v -10.789597 2.607181 1.232244
v -12.150458 0.587835 1.232563
v -12.150458 0.587835 0.156152
v -12.150458 6.707834 1.232563
v -12.150458 6.707834 0.156152
v -12.180459 6.707834 1.232563
v -12.180459 6.707834 0.156152
v -12.180459 0.587835 1.232563
v -12.180459 0.587835 0.156152
v -7.473221 0.603612 1.231394
v -7.473221 0.603612 -0.156226
v -7.473221 6.723612 1.231394
v -7.473221 6.723612 -0.156226
v -7.503221 6.723612 1.231394
v -7.503221 6.723612 -0.156226
v -7.503221 0.603612 1.231394
v -7.503221 0.603612 -0.156226
vt 0.613711 0.465621
vt 0.615972 0.465621
vt 0.615972 0.926854
vt 0.613711 0.926854
vt 0.883859 0.616535
vt 0.883859 0.463158
vt 0.886120 0.463158
vt 0.886120 0.616535
vt 0.875462 0.616535
vt 0.875462 0.463158
vt 0.877723 0.463158
vt 0.877723 0.616535
vt 0.623455 0.465621
vt 0.625716 0.465621
vt 0.625716 0.926854
vt 0.623455 0.926854
vt 0.852535 0.463158
vt 0.852535 0.554350
vt 0.850274 0.554350
vt 0.850274 0.463158
vt 0.844138 0.463158
vt 0.844138 0.554350
vt 0.841877 0.554350
vt 0.841877 0.463158
vt 0.835742 0.463158
vt 0.835742 0.554350
vt 0.833481 0.554350
vt 0.833481 0.463158
vt 0.827346 0.463158
vt 0.827346 0.554350
vt 0.825085 0.554350
vt 0.825085 0.463158
vt 0.818950 0.463158
vt 0.818950 0.554350
vt 0.816689 0.554350
vt 0.816689 0.463158
vt 0.810553 0.463158
vt 0.810553 0.554350
vt 0.808292 0.554350
vt 0.808292 0.463158
vt 0.802157 0.463158
vt 0.802157 0.554350
vt 0.799896 0.554350
vt 0.799896 0.463158
vt 0.793761 0.463158
vt 0.793761 0.554350
vt 0.791500 0.554350
vt 0.791500 0.463158
vt 0.785364 0.463158
vt 0.785364 0.554350
vt 0.783103 0.554350
vt 0.783103 0.463158
vt 0.776968 0.463158
vt 0.776968 0.554350
vt 0.774707 0.554350
vt 0.774707 0.463158
vt 0.060904 0.467133
vt 0.142027 0.467133
vt 0.142027 0.928366
vt 0.060904 0.928366
vt 0.142620 0.928739
vt 0.061496 0.928739
vt 0.061496 0.467506
vt 0.142620 0.467506
vt 0.498986 0.468838
vt 0.603563 0.468838
vt 0.603563 0.930071
vt 0.498986 0.930071
vt 0.603489 0.929288
vt 0.498911 0.929288
vt 0.498911 0.468055
vt 0.603489 0.468055
vt 0.892255 0.698637
vt 0.892255 0.463158
vt 0.894516 0.463158
vt 0.894516 0.698637
vt 0.751779 0.463158
vt 0.751779 0.530987
vt 0.749518 0.530987
vt 0.749518 0.463158
vt 0.657159 0.514820
vt 0.657159 0.463158
vt 0.659420 0.463158
vt 0.659420 0.514820
vt 0.900651 0.818127
vt 0.900651 0.463158
vt 0.902912 0.463158
vt 0.902912 0.818127
vt 0.743383 0.463158
vt 0.743383 0.519682
vt 0.741122 0.519682
vt 0.741122 0.463158
vt 0.734987 0.463158
vt 0.734987 0.519682
vt 0.732726 0.519682
vt 0.732726 0.463158
vt 0.726590 0.463158
vt 0.726590 0.519682
vt 0.724329 0.519682
vt 0.724329 0.463158
vt 0.718194 0.463158
vt 0.718194 0.519682
vt 0.715933 0.519682
vt 0.715933 0.463158
vt 0.709798 0.463158
vt 0.709798 0.519682
vt 0.707537 0.519682
vt 0.707537 0.463158
vt 0.701402 0.463158
vt 0.701402 0.519682
vt 0.699141 0.519682
vt 0.699141 0.463158
vt 0.693005 0.463158
vt 0.693005 0.519682
vt 0.690744 0.519682
vt 0.690744 0.463158
vt 0.684609 0.463158
vt 0.684609 0.519682
vt 0.682348 0.519682
vt 0.682348 0.463158
vt 0.676213 0.463158
vt 0.676213 0.519682
vt 0.673952 0.519682
vt 0.673952 0.463158
vt 0.667816 0.463158
vt 0.667816 0.519682
vt 0.665556 0.519682
vt 0.665556 0.463158
vt 0.768572 0.463158
vt 0.768572 0.544282
vt 0.766311 0.544282
vt 0.766311 0.463158
vt 0.757914 0.544282
vt 0.757914 0.463158
vt 0.760175 0.463158
vt 0.760175 0.544282
vt 0.869327 0.463158
vt 0.869327 0.567736
vt 0.867066 0.567736
vt 0.867066 0.463158
vt 0.858670 0.567736
vt 0.858670 0.463158
vt 0.860931 0.463158
vt 0.860931 0.567736
vt 0.143429 0.467371
vt 0.191827 0.528367
vt 0.191827 0.619559
vt 0.191827 0.753108
vt 0.191827 0.844300
vt 0.248350 0.844300
vt 0.248350 0.753108
vt 0.291850 0.753108
vt 0.291850 0.844300
vt 0.348374 0.844300
vt 0.348374 0.753108
vt 0.390550 0.753108
vt 0.390550 0.844300
vt 0.447074 0.844300
vt 0.447074 0.753108
vt 0.498398 0.928604
vt 0.143429 0.928604
vt 0.348374 0.619559
vt 0.348374 0.528367
vt 0.291850 0.528367
vt 0.248350 0.528367
vt 0.378908 0.467371
vt 0.378908 0.620747
vt 0.248350 0.619559
vt 0.291850 0.619559
vt 0.446736 0.620747
vt 0.446736 0.467371
vt 0.498398 0.467371
vt 0.143941 0.929812
vt 0.501347 0.928462
vt 0.449357 0.844353
vt 0.392445 0.844569
vt 0.392106 0.753378
vt 0.349639 0.753538
vt 0.349979 0.844729
vt 0.293067 0.844944
vt 0.292728 0.753753
vt 0.248929 0.753919
vt 0.249269 0.845109
vt 0.192357 0.845325
vt 0.192018 0.754134
vt 0.191521 0.620585
vt 0.191181 0.529394
vt 0.142224 0.468583
vt 0.499630 0.467232
vt 0.447614 0.467429
vt 0.448185 0.620804
vt 0.379891 0.621062
vt 0.379320 0.467687
vt 0.248093 0.529179
vt 0.291891 0.529014
vt 0.348803 0.528799
vt 0.349142 0.619990
vt 0.449018 0.753163
vt 0.292230 0.620205
vt 0.248432 0.620370
vt 0.639924 0.927996
vt 0.637663 0.927996
vt 0.637663 0.466764
vt 0.639924 0.466764
vt 0.647408 0.466764
vt 0.649669 0.466764
vt 0.649669 0.927996
vt 0.647408 0.927996
vt 0.919705 0.924391
vt 0.917444 0.924391
vt 0.917444 0.463158
vt 0.919705 0.463158
vt 0.909047 0.463158
vt 0.911308 0.463158
vt 0.911308 0.924391
vt 0.909047 0.924391
vn 0.000000 0.000000 1.000000
vn 0.000000 0.000000 1.000000
vn -0.000000 0.000000 1.000000
vn -0.000000 0.000000 1.000000
vn 0.000000 0.000000 1.000000
vn 0.000000 0.000000 1.000000
vn -0.000000 0.000000 1.000000
vn -0.000000 0.000000 1.000000
vn 0.000000 0.000000 1.000000
vn 0.000000 0.000000 1.000000
vn -0.000000 0.000000 1.000000
vn -0.000000 0.000000 1.000000
vn 0.000000 0.000000 1.000000
vn 0.000000 0.000000 1.000000
vn -0.000000 0.000000 1.000000
vn -0.000000 0.000000 1.000000
vn 0.000000 0.000000 1.000000
vn -0.000000 0.000000 1.000000
vn 0.000000 0.000000 1.000000
vn 0.000000 0.000000 1.000000
vn -0.000000 0.000000 1.000000
vn -0.000000 0.000000 1.000000
vn -0.000000 0.000000 1.000000
vn -0.000000 0.000000 1.000000
vn -0.000000 0.000000 1.000000
vn -0.000000 0.000000 1.000000
vn 0.000000 0.000000 1.000000
vn 0.000000 0.000000 1.000000
vn -1.000000 0.000000 0.000000
vn -1.000000 0.000000 0.000000
vn -1.000000 0.000000 0.000000
vn -1.000000 0.000000 0.000000
vn 0.000000 -1.000000 0.000000
vn 0.000000 -1.000000 0.000000
vn 0.000000 -1.000000 0.000000
vn 0.000000 -1.000000 0.000000
vn 1.000000 0.000000 0.000000
vn 1.000000 0.000000 0.000000
vn 1.000000 0.000000 0.000000
vn 1.000000 0.000000 0.000000
vn 0.000000 -1.000000 0.000000
vn 0.000000 -1.000000 0.000000
vn 0.000000 -1.000000 0.000000
vn 0.000000 -1.000000 0.000000
vn -1.000000 0.000000 0.000000
vn -1.000000 0.000000 0.000000
vn -1.000000 0.000000 0.000000
vn -1.000000 0.000000 0.000000
vn 0.000000 -1.000000 0.000000
vn 0.000000 -1.000000 0.000000
vn 0.000000 -1.000000 0.000000
vn 0.000000 -1.000000 0.000000
vn 1.000000 0.000000 0.000000
vn 1.000000 0.000000 0.000000
vn 1.000000 0.000000 0.000000
vn 1.000000 0.000000 0.000000
vn 0.000000 1.000000 0.000000
vn 0.000000 1.000000 0.000000
vn 0.000000 1.000000 0.000000
vn 0.000000 1.000000 0.000000
vn 0.000000 0.000000 -1.000000
vn 0.000000 0.000000 -1.000000
vn 0.000000 0.000000 -1.000000
vn 0.000000 0.000000 -1.000000
vn 0.000000 0.000000 -1.000000
vn 0.000000 0.000000 -1.000000
vn 0.000000 0.000000 -1.000000
vn 0.000000 0.000000 -1.000000
vn 0.000000 0.000000 -1.000000
vn 0.000000 0.000000 -1.000000
vn 0.000000 0.000000 -1.000000
vn 0.000000 0.000000 -1.000000
vn 0.000000 0.000000 -1.000000
vn 0.000000 0.000000 -1.000000
vn 0.000000 0.000000 -1.000000
vn 0.000000 0.000000 -1.000000
vn 0.000000 0.000000 -1.000000
vn 0.000000 0.000000 -1.000000
vn 0.000000 0.000000 -1.000000
vn 0.000000 0.000000 -1.000000
vn 0.000000 0.000000 -1.000000
vn 0.000000 0.000000 -1.000000
vn 0.000000 0.000000 -1.000000
vn 0.000000 0.000000 -1.000000
vn 0.000000 0.000000 -1.000000
vn 0.000000 0.000000 -1.000000
vn 0.000000 0.000000 -1.000000
vn 0.000000 0.000000 -1.000000
vn 1.000000 0.000000 0.000000
vn 1.000000 0.000000 0.000000
vn 1.000000 0.000000 0.000000
vn 1.000000 0.000000 0.000000
vn 0.000000 1.000000 0.000000
vn 0.000000 1.000000 0.000000
vn 0.000000 1.000000 0.000000
vn 0.000000 1.000000 0.000000
vn 0.000000 -1.000000 0.000000
vn 0.000000 -1.000000 0.000000
vn 0.000000 -1.000000 0.000000
vn 0.000000 -1.000000 0.000000
vn -1.000000 0.000000 0.000000
vn -1.000000 0.000000 0.000000
vn -1.000000 0.000000 0.000000
vn -1.000000 0.000000 0.000000
vn 1.000000 0.000000 0.000000
vn 1.000000 0.000000 0.000000
vn 1.000000 0.000000 0.000000
vn 1.000000 0.000000 0.000000
vn 0.000000 1.000000 0.000000
vn 0.000000 1.000000 0.000000
vn 0.000000 1.000000 0.000000
vn 0.000000 1.000000 0.000000
vn 0.000000 -1.000000 0.000000
vn 0.000000 -1.000000 0.000000
vn 0.000000 -1.000000 0.000000
vn 0.000000 -1.000000 0.000000
vn -1.000000 0.000000 0.000000
vn -1.000000 0.000000 0.000000
vn -1.000000 0.000000 0.000000
vn -1.000000 0.000000 0.000000
vn 1.000000 0.000000 0.000000
vn 1.000000 0.000000 0.000000
vn 1.000000 0.000000 0.000000
vn 1.000000 0.000000 0.000000
vn 0.000000 1.000000 0.000000
vn 0.000000 1.000000 0.000000
vn 0.000000 1.000000 0.000000
vn 0.000000 1.000000 0.000000
vn 0.000000 -1.000000 0.000000
vn 0.000000 -1.000000 0.000000
vn 0.000000 -1.000000 0.000000
vn 0.000000 -1.000000 0.000000
vn -1.000000 0.000000 0.000000
vn -1.000000 0.000000 0.000000
vn -1.000000 0.000000 0.000000
vn -1.000000 0.000000 0.000000
vn 1.000000 0.000000 0.000000
vn 1.000000 0.000000 0.000000
vn 1.000000 0.000000 0.000000
vn 1.000000 0.000000 0.000000
vn 0.000000 1.000000 0.000000
vn 0.000000 1.000000 0.000000
vn 0.000000 1.000000 0.000000
vn 0.000000 1.000000 0.000000
vn 0.000000 -1.000000 0.000000
vn 0.000000 -1.000000 0.000000
vn 0.000000 -1.000000 0.000000
vn 0.000000 -1.000000 0.000000
vn -1.000000 0.000000 0.000000
vn -1.000000 0.000000 0.000000
vn -1.000000 0.000000 0.000000
vn -1.000000 0.000000 0.000000
vn 1.000000 0.000000 0.000000
vn 1.000000 0.000000 0.000000
vn 1.000000 0.000000 0.000000
vn 1.000000 0.000000 0.000000
vn 0.000000 1.000000 0.000000
vn 0.000000 1.000000 0.000000
vn 0.000000 1.000000 0.000000
vn 0.000000 1.000000 0.000000
vn 0.000000 -1.000000 0.000000
vn 0.000000 -1.000000 0.000000
vn 0.000000 -1.000000 0.000000
vn 0.000000 -1.000000 0.000000
vn -1.000000 0.000000 0.000000
vn -1.000000 0.000000 0.000000
vn -1.000000 0.000000 0.000000
vn -1.000000 0.000000 0.000000
vn 1.000000 0.000000 0.000000
vn 1.000000 0.000000 0.000000
vn 1.000000 0.000000 0.000000
vn 1.000000 0.000000 0.000000
vn 0.000000 1.000000 0.000000
vn 0.000000 1.000000 0.000000
vn 0.000000 1.000000 0.000000
vn 0.000000 1.000000 0.000000
vn -1.000000 0.000000 0.000000
vn -1.000000 0.000000 0.000000
vn -1.000000 0.000000 0.000000
vn -1.000000 0.000000 0.000000
vn 0.000000 -1.000000 0.000000
vn 0.000000 -1.000000 0.000000
vn 0.000000 -1.000000 0.000000
vn 0.000000 -1.000000 0.000000
vn 0.000000 0.000000 -1.000000
vn 0.000000 0.000000 -1.000000
vn 0.000000 0.000000 -1.000000
vn 0.000000 0.000000 -1.000000
vn 0.000000 0.000000 1.000000
vn 0.000000 0.000000 1.000000
vn 0.000000 0.000000 1.000000
vn 0.000000 0.000000 1.000000
vn 1.000000 0.000000 0.000000
vn 1.000000 0.000000 0.000000
vn 1.000000 0.000000 0.000000
vn 1.000000 0.000000 0.000000
vn 0.000000 1.000000 0.000000
vn 0.000000 1.000000 0.000000
vn 0.000000 1.000000 0.000000
vn 0.000000 1.000000 0.000000
vn -1.000000 0.000000 0.000000
vn -1.000000 0.000000 0.000000
vn -1.000000 0.000000 0.000000
vn -1.000000 0.000000 0.000000
vn 0.000000 -1.000000 0.000000
vn 0.000000 -1.000000 0.000000
vn 0.000000 -1.000000 0.000000
vn 0.000000 -1.000000 0.000000
vn 0.000000 0.000000 -1.000000
vn 0.000000 0.000000 -1.000000
vn 0.000000 0.000000 -1.000000
vn 0.000000 0.000000 -1.000000
vn 0.000000 0.000000 1.000000
vn 0.000000 0.000000 1.000000
vn 0.000000 0.000000 1.000000
vn 0.000000 0.000000 1.000000
s 1
g frontwall3
usemtl initialShadingGroup
f 1/145/1 2/146/2 3/147/3 4/148/4 5/149/5 6/150/6 7/151/7 8/152/8 9/153/9 10/154/10 11/155/11 12/156/12 13/157/13 14/158/14 15/159/15 16/160/16 17/161/17
f 15/159/15 12/156/12 11/155/11 8/152/8 7/151/7 4/148/4 3/147/3 18/168/18 19/165/19 20/164/20 21/169/21 22/162/22 23/167/23 24/170/24 25/171/25 26/172/26 16/160/16
f 22/162/22 27/163/27 20/164/20 19/165/19 2/146/2 1/145/1 28/166/28 23/167/23
s off
f 29/1/29 1/2/30 17/3/31 30/4/32
f 29/73/33 31/74/34 28/75/35 1/76/36
f 23/5/37 28/6/38 31/7/39 32/8/40
f 24/77/41 23/78/42 32/79/43 33/80/44
f 33/9/45 34/10/46 25/11/47 24/12/48
f 34/81/49 35/82/50 26/83/51 25/84/52
f 26/13/53 35/14/54 36/15/55 16/16/56
f 17/85/57 16/86/58 36/87/59 30/88/60
s 2
f 30/173/61 36/174/62 37/175/63 38/176/64 39/177/65 40/178/66 41/179/67 42/180/68 43/181/69 44/182/70 45/183/71 46/184/72 47/185/73 48/186/74 49/187/75 29/188/76
f 36/174/62 35/189/77 34/190/78 33/191/79 32/192/80 31/193/81 29/188/76 49/187/75 50/194/82 51/195/83 52/196/84 53/197/85 39/177/65 54/198/86 37/175/63
f 53/197/85 55/199/87 51/195/83 50/194/82 56/200/88 48/186/74 47/185/73 44/182/70 43/181/69 40/178/66 39/177/65
s off
f 39/17/89 38/18/90 13/19/91 12/20/92
f 54/89/93 39/90/94 12/91/95 15/92/96
f 14/93/97 13/94/98 38/95/99 37/96/100
f 15/21/101 14/22/102 37/23/103 54/24/104
f 43/25/105 42/26/106 9/27/107 8/28/108
f 40/97/109 43/98/110 8/99/111 11/100/112
f 10/101/113 9/102/114 42/103/115 41/104/116
f 11/29/117 10/30/118 41/31/119 40/32/120
f 47/33/121 46/34/122 5/35/123 4/36/124
f 44/105/125 47/106/126 4/107/127 7/108/128
f 6/109/129 5/110/130 46/111/131 45/112/132
f 7/37/133 6/38/134 45/39/135 44/40/136
f 49/41/137 48/42/138 3/43/139 2/44/140
f 50/113/141 49/114/142 2/115/143 19/116/144
f 18/117/145 3/118/146 48/119/147 56/120/148
f 19/45/149 18/46/150 56/47/151 50/48/152
f 51/49/153 55/50/154 21/51/155 20/52/156
f 52/121/157 51/122/158 20/123/159 27/124/160
f 22/125/161 21/126/162 55/127/163 53/128/164
f 27/53/165 22/54/166 53/55/167 52/56/168
f 57/57/169 58/58/170 60/59/171 59/60/172
f 59/129/173 60/130/174 62/131/175 61/132/176
f 61/61/177 62/62/178 64/63/179 63/64/180
f 63/133/181 64/134/182 58/135/183 57/136/184
f 58/201/185 64/202/186 62/203/187 60/204/188
f 63/205/189 57/206/190 59/207/191 61/208/192
f 65/65/193 66/66/194 68/67/195 67/68/196
f 67/137/197 68/138/198 70/139/199 69/140/200
f 69/69/201 70/70/202 72/71/203 71/72/204
f 71/141/205 72/142/206 66/143/207 65/144/208
f 66/209/209 72/210/210 70/211/211 68/212/212
f 71/213/213 65/214/214 67/215/215 69/216/216
