# This file uses centimeters as units for non-parametric coordinates.

mtllib Platform.mtl
g default
v -12.176773 -0.000917 1.265000
v -7.476773 -0.000917 1.265000
v -12.176773 0.599083 1.265000
v -7.476773 0.599083 1.265000
v -12.176773 0.599083 -1.265000
v -7.476773 0.599083 -1.265000
v -12.176773 -0.000917 -1.265000
v -7.476773 -0.000917 -1.265000
v -12.471776 -0.007480 -1.027392
v -12.471145 -0.007480 -0.027392
v -12.471776 0.392520 -1.027392
v -12.471145 0.392520 -0.027392
v -12.171777 0.392520 -1.027581
v -12.171145 0.392520 -0.027581
v -12.171777 -0.007480 -1.027581
v -12.171145 -0.007480 -0.027581
v -12.775164 -0.016127 -1.030079
v -12.774532 -0.016127 -0.030079
v -12.775164 0.183873 -1.030079
v -12.774532 0.183873 -0.030079
v -12.475164 0.183873 -1.030269
v -12.474533 0.183873 -0.030269
v -12.475164 -0.016127 -1.030269
v -12.474533 -0.016127 -0.030269
vt 0.866886 0.998008
vt 0.866886 0.650800
vt 0.949228 0.650800
vt 0.949228 0.998008
vt 0.778709 0.998008
vt 0.778709 0.650800
vt 0.861051 0.650800
vt 0.861051 0.998008
vt 0.529607 0.788036
vt 0.529607 0.650800
vt 0.584502 0.650800
vt 0.584502 0.788036
vt 0.523772 0.650800
vt 0.523772 0.788036
vt 0.468877 0.788036
vt 0.468877 0.650800
vt 0.435595 0.788036
vt 0.435595 0.650800
vt 0.463042 0.650800
vt 0.463042 0.788036
vt 0.429759 0.650800
vt 0.429759 0.788036
vt 0.402312 0.788036
vt 0.402312 0.650800
vt 0.091057 0.647003
vt 0.091057 0.001992
vt 0.438266 0.001992
vt 0.438266 0.647003
vt 0.534090 0.647003
vt 0.534090 0.001992
vt 0.881298 0.001992
vt 0.881298 0.647003
vt 0.731616 0.788036
vt 0.731703 0.650800
vt 0.772874 0.650826
vt 0.772787 0.788062
vt 0.725694 0.650800
vt 0.725781 0.788036
vt 0.684610 0.788062
vt 0.684523 0.650826
vt 0.637430 0.788036
vt 0.637517 0.650800
vt 0.678688 0.650826
vt 0.678601 0.788062
vt 0.631508 0.650800
vt 0.631595 0.788036
vt 0.590424 0.788062
vt 0.590337 0.650826
vt 0.001895 0.647003
vt 0.001895 0.001992
vt 0.084237 0.001992
vt 0.084237 0.647003
vt 0.445113 0.647003
vt 0.445113 0.001992
vt 0.527454 0.001992
vt 0.527454 0.647003
vt 0.355306 0.650800
vt 0.396477 0.650800
vt 0.396477 0.705694
vt 0.355306 0.705694
vt 0.349471 0.705694
vt 0.308300 0.705694
vt 0.308300 0.650800
vt 0.349471 0.650800
vt 0.275017 0.691970
vt 0.275017 0.650800
vt 0.302464 0.650800
vt 0.302464 0.691970
vt 0.269182 0.650800
vt 0.269182 0.691970
vt 0.241735 0.691970
vt 0.241735 0.650800
vn 0.000000 0.000000 1.000000
vn 0.000000 0.000000 1.000000
vn 0.000000 0.000000 1.000000
vn 0.000000 0.000000 1.000000
vn 0.000000 1.000000 0.000000
vn 0.000000 1.000000 0.000000
vn 0.000000 1.000000 0.000000
vn 0.000000 1.000000 0.000000
vn 0.000000 0.000000 -1.000000
vn 0.000000 0.000000 -1.000000
vn 0.000000 0.000000 -1.000000
vn 0.000000 0.000000 -1.000000
vn 0.000000 -1.000000 0.000000
vn 0.000000 -1.000000 0.000000
vn 0.000000 -1.000000 0.000000
vn 0.000000 -1.000000 0.000000
vn 1.000000 0.000000 0.000000
vn 1.000000 0.000000 0.000000
vn 1.000000 0.000000 0.000000
vn 1.000000 0.000000 0.000000
vn -1.000000 0.000000 0.000000
vn -1.000000 0.000000 0.000000
vn -1.000000 0.000000 0.000000
vn -1.000000 0.000000 0.000000
vn -1.000000 0.000000 0.000631
vn -1.000000 0.000000 0.000631
vn -1.000000 0.000000 0.000631
vn -1.000000 0.000000 0.000631
vn 0.000000 1.000000 0.000000
vn 0.000000 1.000000 0.000000
vn 0.000000 1.000000 0.000000
vn 0.000000 1.000000 0.000000
vn 1.000000 0.000000 -0.000631
vn 1.000000 0.000000 -0.000631
vn 1.000000 0.000000 -0.000631
vn 1.000000 0.000000 -0.000631
vn 0.000000 -1.000000 0.000000
vn 0.000000 -1.000000 0.000000
vn 0.000000 -1.000000 0.000000
vn 0.000000 -1.000000 0.000000
vn 0.000631 0.000000 1.000000
vn 0.000631 0.000000 1.000000
vn 0.000631 0.000000 1.000000
vn 0.000631 0.000000 1.000000
vn -0.000631 0.000000 -1.000000
vn -0.000631 0.000000 -1.000000
vn -0.000631 0.000000 -1.000000
vn -0.000631 0.000000 -1.000000
vn -1.000000 0.000000 0.000631
vn -1.000000 0.000000 0.000631
vn -1.000000 0.000000 0.000631
vn -1.000000 0.000000 0.000631
vn 0.000000 1.000000 0.000000
vn 0.000000 1.000000 0.000000
vn 0.000000 1.000000 0.000000
vn 0.000000 1.000000 0.000000
vn 1.000000 0.000000 -0.000631
vn 1.000000 0.000000 -0.000631
vn 1.000000 0.000000 -0.000631
vn 1.000000 0.000000 -0.000631
vn 0.000000 -1.000000 0.000000
vn 0.000000 -1.000000 0.000000
vn 0.000000 -1.000000 0.000000
vn 0.000000 -1.000000 0.000000
vn 0.000631 0.000000 1.000000
vn 0.000631 0.000000 1.000000
vn 0.000631 0.000000 1.000000
vn 0.000631 0.000000 1.000000
vn -0.000631 0.000000 -1.000000
vn -0.000631 0.000000 -1.000000
vn -0.000631 0.000000 -1.000000
vn -0.000631 0.000000 -1.000000
s off
g BasePlatform1
usemtl initialShadingGroup
f 1/49/1 2/50/2 4/51/3 3/52/4
f 3/25/5 4/26/6 6/27/7 5/28/8
f 5/53/9 6/54/10 8/55/11 7/56/12
f 7/29/13 8/30/14 2/31/15 1/32/16
f 2/1/17 8/2/18 6/3/19 4/4/20
f 7/5/21 1/6/22 3/7/23 5/8/24
f 9/9/25 10/10/26 12/11/27 11/12/28
f 11/33/29 12/34/30 14/35/31 13/36/32
f 13/13/33 14/14/34 16/15/35 15/16/36
f 15/37/37 16/38/38 10/39/39 9/40/40
f 10/57/41 16/58/42 14/59/43 12/60/44
f 15/61/45 9/62/46 11/63/47 13/64/48
f 17/17/49 18/18/50 20/19/51 19/20/52
f 19/41/53 20/42/54 22/43/55 21/44/56
f 21/21/57 22/22/58 24/23/59 23/24/60
f 23/45/61 24/46/62 18/47/63 17/48/64
f 18/65/65 24/66/66 22/67/67 20/68/68
f 23/69/69 17/70/70 19/71/71 21/72/72
