# This file uses centimeters as units for non-parametric coordinates.

mtllib Window.mtl
g default
v -10.196638 5.288327 1.248478
v -9.489305 5.288327 1.248478
v -10.196638 5.298327 1.248478
v -9.489305 5.298327 1.248478
v -10.196638 5.298327 1.230284
v -9.489305 5.298327 1.230284
v -10.196638 5.288327 1.230284
v -9.489305 5.288327 1.230284
v -10.196638 4.675210 1.248478
v -9.489305 4.675210 1.248478
v -10.196638 4.685210 1.248478
v -9.489305 4.685210 1.248478
v -10.196638 4.685210 1.230284
v -9.489305 4.685210 1.230284
v -10.196638 4.675210 1.230284
v -9.489305 4.675210 1.230284
v -10.196638 4.972729 1.248478
v -9.489305 4.972729 1.248478
v -10.196638 4.997729 1.248478
v -9.489305 4.997729 1.248478
v -10.196638 4.997729 1.230284
v -9.489305 4.997729 1.230284
v -10.196638 4.972729 1.230284
v -9.489305 4.972729 1.230284
v -9.492466 5.560798 1.248192
v -9.492466 4.410798 1.248192
v -10.182467 4.410798 1.248192
v -10.212467 4.380798 1.248192
v -9.462467 4.380798 1.248192
v -9.462467 5.590798 1.248192
v -10.182467 5.560798 1.248192
v -10.212467 5.590798 1.248192
v -10.212467 4.380798 1.230273
v -10.212467 5.590798 1.230273
v -9.462467 4.380798 1.230273
v -9.462467 5.590798 1.230273
v -9.492466 5.560798 1.230273
v -10.182467 5.560798 1.230273
v -10.182467 4.410798 1.230273
v -9.492466 4.410798 1.230273
v -9.713085 4.389657 1.248478
v -9.713085 5.574294 1.248478
v -9.723085 4.389657 1.248478
v -9.723085 5.574294 1.248478
v -9.723085 4.389657 1.230284
v -9.723085 5.574294 1.230284
v -9.713085 4.389657 1.230284
v -9.713085 5.574294 1.230284
v -9.960108 4.389657 1.248478
v -9.960108 5.574294 1.248478
v -9.970108 4.389657 1.248478
v -9.970108 5.574294 1.248478
v -9.970108 4.389657 1.230284
v -9.970108 5.574294 1.230284
v -9.960108 4.389657 1.230284
v -9.960108 5.574294 1.230284
v -10.221369 4.381786 1.258951
v -9.451897 4.381786 1.258951
v -10.221369 4.321451 1.258951
v -9.451897 4.321451 1.258951
v -10.218352 4.324468 1.289581
v -10.220485 4.322334 1.288698
v -10.221369 4.321451 1.286565
v -9.454913 4.324468 1.289581
v -9.452781 4.322334 1.288698
v -9.451897 4.321451 1.286565
v -10.218352 4.378769 1.289581
v -10.220485 4.380902 1.288698
v -10.221369 4.381786 1.286565
v -9.454913 4.378769 1.289581
v -9.452781 4.380902 1.288698
v -9.451897 4.381786 1.286565
vt 0.632951 0.613538
vt 0.632951 0.604536
vt 0.637898 0.604536
vt 0.637898 0.613538
vt 0.621868 0.613538
vt 0.621868 0.604536
vt 0.626815 0.604536
vt 0.626815 0.613538
vt 0.610786 0.613538
vt 0.610786 0.604536
vt 0.615733 0.604536
vt 0.615733 0.613538
vt 0.599703 0.613538
vt 0.599703 0.604536
vt 0.604650 0.604536
vt 0.604650 0.613538
vt 0.659171 0.604536
vt 0.668172 0.604536
vt 0.668172 0.616905
vt 0.659171 0.616905
vt 0.644034 0.604536
vt 0.653035 0.604536
vt 0.653035 0.616905
vt 0.644034 0.616905
vt 0.380284 0.001905
vt 0.389149 0.001905
vt 0.389149 0.600545
vt 0.380284 0.600545
vt 0.395875 0.001905
vt 0.404741 0.001905
vt 0.404741 0.600545
vt 0.395875 0.600545
vt 0.907571 0.001905
vt 0.907571 0.570860
vt 0.898705 0.570860
vt 0.898705 0.001905
vt 0.923163 0.001905
vt 0.923163 0.570860
vt 0.914297 0.570860
vt 0.914297 0.001905
vt 0.810259 0.001905
vt 0.810259 0.587997
vt 0.801258 0.587997
vt 0.801258 0.001905
vt 0.837545 0.001905
vt 0.837545 0.587997
vt 0.828543 0.587997
vt 0.828543 0.001905
vt 0.864830 0.001905
vt 0.864830 0.587997
vt 0.855828 0.587997
vt 0.855828 0.001905
vt 0.892115 0.001905
vt 0.892115 0.587997
vt 0.883114 0.587997
vt 0.883114 0.001905
vt 0.696215 0.604536
vt 0.709876 0.604536
vt 0.709876 0.634386
vt 0.696215 0.634386
vt 0.695159 0.604973
vt 0.695159 0.633949
vt 0.674307 0.604536
vt 0.687969 0.604536
vt 0.687969 0.634386
vt 0.674307 0.634386
vt 0.689024 0.604973
vt 0.689024 0.633949
vt 0.891957 0.941937
vt 0.891957 0.591988
vt 0.900959 0.591988
vt 0.900959 0.941937
vt 0.865737 0.941937
vt 0.865737 0.591988
vt 0.874738 0.591988
vt 0.874738 0.941937
vt 0.839517 0.941937
vt 0.839517 0.591988
vt 0.848519 0.591988
vt 0.848519 0.941937
vt 0.813298 0.941937
vt 0.813298 0.591988
vt 0.822299 0.591988
vt 0.822299 0.941937
vt 0.779656 0.954485
vt 0.779656 0.604536
vt 0.788657 0.604536
vt 0.788657 0.954485
vt 0.746014 0.954485
vt 0.746014 0.604536
vt 0.755016 0.604536
vt 0.755016 0.954485
vt 0.933179 0.757646
vt 0.933179 0.386588
vt 0.942045 0.386588
vt 0.942045 0.757646
vt 0.918178 0.945909
vt 0.918178 0.574852
vt 0.927043 0.574852
vt 0.927043 0.945909
vt 0.739879 0.604536
vt 0.739879 0.945910
vt 0.731013 0.945910
vt 0.731013 0.604536
vt 0.724877 0.604536
vt 0.724877 0.945910
vt 0.716012 0.945910
vt 0.716012 0.604536
vt 0.593568 0.604536
vt 0.593568 0.613538
vt 0.588620 0.613538
vt 0.588620 0.604536
vt 0.582485 0.604536
vt 0.582485 0.613538
vt 0.577538 0.613538
vt 0.577538 0.604536
vt 0.571402 0.604536
vt 0.571402 0.613538
vt 0.566454 0.613538
vt 0.566454 0.604536
vt 0.560319 0.604536
vt 0.560319 0.613538
vt 0.555371 0.613538
vt 0.555371 0.604536
vt 0.967974 0.382597
vt 0.967974 0.001905
vt 0.981636 0.001905
vt 0.981636 0.382597
vt 0.966919 0.382159
vt 0.966919 0.002343
vt 0.983292 0.767280
vt 0.983292 0.386588
vt 0.996953 0.386588
vt 0.996953 0.767280
vt 0.998008 0.766842
vt 0.998008 0.387026
vt 0.907095 0.924800
vt 0.907095 0.574852
vt 0.912042 0.574852
vt 0.912042 0.924800
vt 0.880874 0.941937
vt 0.880874 0.591988
vt 0.885822 0.591988
vt 0.885822 0.941937
vt 0.854654 0.941937
vt 0.854654 0.591988
vt 0.859601 0.591988
vt 0.859601 0.941937
vt 0.828434 0.941937
vt 0.828434 0.591988
vt 0.833381 0.591988
vt 0.833381 0.941937
vt 0.794793 0.941937
vt 0.794793 0.591988
vt 0.807162 0.591988
vt 0.807162 0.941937
vt 0.761152 0.954485
vt 0.761152 0.604536
vt 0.773521 0.604536
vt 0.773521 0.954485
vt 0.358208 0.585702
vt 0.358208 0.016747
vt 0.016834 0.016747
vt 0.001992 0.001905
vt 0.373049 0.001905
vt 0.373049 0.600545
vt 0.016834 0.585702
vt 0.001992 0.600545
vt 0.411468 0.001905
vt 0.782525 0.001905
vt 0.767683 0.016748
vt 0.426310 0.016748
vt 0.426310 0.585703
vt 0.411468 0.600545
vt 0.782525 0.600545
vt 0.767683 0.585703
vt 0.794512 0.001905
vt 0.794512 0.587997
vt 0.789564 0.587997
vt 0.789564 0.001905
vt 0.816849 0.587997
vt 0.816849 0.001905
vt 0.821797 0.001905
vt 0.821797 0.587997
vt 0.849083 0.001905
vt 0.849083 0.587997
vt 0.844135 0.587997
vt 0.844135 0.001905
vt 0.871420 0.587997
vt 0.871420 0.001905
vt 0.876368 0.001905
vt 0.876368 0.587997
vt 0.929889 0.382597
vt 0.929889 0.001905
vt 0.959739 0.001905
vt 0.959739 0.382597
vt 0.949235 0.765350
vt 0.949235 0.387643
vt 0.976101 0.387643
vt 0.976101 0.765350
vt 0.948180 0.766405
vt 0.948180 0.386588
vt 0.977156 0.386588
vt 0.977156 0.766405
vn 0.000000 0.000000 1.000000
vn 0.000000 0.000000 1.000000
vn 0.000000 0.000000 1.000000
vn 0.000000 0.000000 1.000000
vn 0.000000 1.000000 0.000000
vn 0.000000 1.000000 0.000000
vn 0.000000 1.000000 0.000000
vn 0.000000 1.000000 0.000000
vn 0.000000 0.000000 -1.000000
vn 0.000000 0.000000 -1.000000
vn 0.000000 0.000000 -1.000000
vn 0.000000 0.000000 -1.000000
vn 0.000000 -1.000000 0.000000
vn 0.000000 -1.000000 0.000000
vn 0.000000 -1.000000 0.000000
vn 0.000000 -1.000000 0.000000
vn 1.000000 0.000000 0.000000
vn 1.000000 0.000000 0.000000
vn 1.000000 0.000000 0.000000
vn 1.000000 0.000000 0.000000
vn -1.000000 0.000000 0.000000
vn -1.000000 0.000000 0.000000
vn -1.000000 0.000000 0.000000
vn -1.000000 0.000000 0.000000
vn 0.000000 0.000000 1.000000
vn 0.000000 0.000000 1.000000
vn 0.000000 0.000000 1.000000
vn 0.000000 0.000000 1.000000
vn 0.000000 1.000000 0.000000
vn 0.000000 1.000000 0.000000
vn 0.000000 1.000000 0.000000
vn 0.000000 1.000000 0.000000
vn 0.000000 0.000000 -1.000000
vn 0.000000 0.000000 -1.000000
vn 0.000000 0.000000 -1.000000
vn 0.000000 0.000000 -1.000000
vn 0.000000 -1.000000 0.000000
vn 0.000000 -1.000000 0.000000
vn 0.000000 -1.000000 0.000000
vn 0.000000 -1.000000 0.000000
vn 1.000000 0.000000 0.000000
vn 1.000000 0.000000 0.000000
vn 1.000000 0.000000 0.000000
vn 1.000000 0.000000 0.000000
vn -1.000000 0.000000 0.000000
vn -1.000000 0.000000 0.000000
vn -1.000000 0.000000 0.000000
vn -1.000000 0.000000 0.000000
vn 0.000000 0.000000 1.000000
vn 0.000000 0.000000 1.000000
vn 0.000000 0.000000 1.000000
vn 0.000000 0.000000 1.000000
vn 0.000000 1.000000 0.000000
vn 0.000000 1.000000 0.000000
vn 0.000000 1.000000 0.000000
vn 0.000000 1.000000 0.000000
vn 0.000000 0.000000 -1.000000
vn 0.000000 0.000000 -1.000000
vn 0.000000 0.000000 -1.000000
vn 0.000000 0.000000 -1.000000
vn 0.000000 -1.000000 0.000000
vn 0.000000 -1.000000 0.000000
vn 0.000000 -1.000000 0.000000
vn 0.000000 -1.000000 0.000000
vn 1.000000 0.000000 0.000000
vn 1.000000 0.000000 0.000000
vn 1.000000 0.000000 0.000000
vn 1.000000 0.000000 0.000000
vn -1.000000 0.000000 0.000000
vn -1.000000 0.000000 0.000000
vn -1.000000 0.000000 0.000000
vn -1.000000 0.000000 0.000000
vn 0.000000 0.000000 1.000000
vn 0.000000 0.000000 1.000000
vn 0.000000 0.000000 1.000000
vn 0.000000 0.000000 1.000000
vn 0.000000 0.000000 1.000000
vn 0.000000 0.000000 1.000000
vn 0.000000 0.000000 1.000000
vn 0.000000 0.000000 1.000000
vn -1.000000 0.000000 0.000000
vn -1.000000 0.000000 0.000000
vn -1.000000 0.000000 0.000000
vn -1.000000 0.000000 0.000000
vn 0.000000 -1.000000 0.000000
vn 0.000000 -1.000000 0.000000
vn 0.000000 -1.000000 0.000000
vn 0.000000 -1.000000 0.000000
vn 1.000000 0.000000 0.000000
vn 1.000000 0.000000 0.000000
vn 1.000000 0.000000 0.000000
vn 1.000000 0.000000 0.000000
vn 0.000000 1.000000 0.000000
vn 0.000000 1.000000 0.000000
vn 0.000000 1.000000 0.000000
vn 0.000000 1.000000 0.000000
vn 0.000000 0.000000 -1.000000
vn -0.000000 0.000000 -1.000000
vn -0.000000 0.000000 -1.000000
vn 0.000000 0.000000 -1.000000
vn -0.000000 0.000000 -1.000000
vn -0.000000 0.000000 -1.000000
vn -0.000001 0.000000 -1.000000
vn -0.000001 0.000000 -1.000000
vn 0.000000 -1.000000 0.000000
vn 0.000000 -1.000000 0.000000
vn 0.000000 -1.000000 0.000000
vn 0.000000 -1.000000 0.000000
vn -1.000000 0.000000 0.000000
vn -1.000000 0.000000 0.000000
vn -1.000000 0.000000 0.000000
vn -1.000000 0.000000 0.000000
vn 1.000000 0.000000 0.000000
vn 1.000000 0.000000 0.000000
vn 1.000000 0.000000 0.000000
vn 1.000000 0.000000 0.000000
vn 0.000000 1.000000 0.000000
vn 0.000000 1.000000 0.000000
vn 0.000000 1.000000 0.000000
vn 0.000000 1.000000 0.000000
vn 0.000000 0.000000 1.000000
vn 0.000000 0.000000 1.000000
vn 0.000000 0.000000 1.000000
vn 0.000000 0.000000 1.000000
vn -1.000000 0.000000 0.000000
vn -1.000000 0.000000 0.000000
vn -1.000000 0.000000 0.000000
vn -1.000000 0.000000 0.000000
vn 0.000000 0.000000 -1.000000
vn 0.000000 0.000000 -1.000000
vn 0.000000 0.000000 -1.000000
vn 0.000000 0.000000 -1.000000
vn 1.000000 0.000000 0.000000
vn 1.000000 0.000000 0.000000
vn 1.000000 0.000000 0.000000
vn 1.000000 0.000000 0.000000
vn 0.000000 1.000000 0.000000
vn 0.000000 1.000000 0.000000
vn 0.000000 1.000000 0.000000
vn 0.000000 1.000000 0.000000
vn 0.000000 -1.000000 0.000000
vn 0.000000 -1.000000 0.000000
vn 0.000000 -1.000000 0.000000
vn 0.000000 -1.000000 0.000000
vn 0.000000 0.000000 1.000000
vn 0.000000 0.000000 1.000000
vn 0.000000 0.000000 1.000000
vn 0.000000 0.000000 1.000000
vn -1.000000 0.000000 0.000000
vn -1.000000 0.000000 0.000000
vn -1.000000 0.000000 0.000000
vn -1.000000 0.000000 0.000000
vn 0.000000 0.000000 -1.000000
vn 0.000000 0.000000 -1.000000
vn 0.000000 0.000000 -1.000000
vn 0.000000 0.000000 -1.000000
vn 1.000000 0.000000 0.000000
vn 1.000000 0.000000 0.000000
vn 1.000000 0.000000 0.000000
vn 1.000000 0.000000 0.000000
vn 0.000000 1.000000 0.000000
vn 0.000000 1.000000 0.000000
vn 0.000000 1.000000 0.000000
vn 0.000000 1.000000 0.000000
vn 0.000000 -1.000000 0.000000
vn 0.000000 -1.000000 0.000000
vn 0.000000 -1.000000 0.000000
vn 0.000000 -1.000000 0.000000
vn 0.000000 0.000000 -1.000000
vn 0.000000 0.000000 -1.000000
vn 0.000000 0.000000 -1.000000
vn 0.000000 0.000000 -1.000000
vn -0.001670 -0.022642 0.999742
vn 0.001670 -0.022642 0.999742
vn 0.001670 0.022641 0.999742
vn -0.001670 0.022641 0.999742
vn 0.000000 0.999732 0.023149
vn 0.000000 0.999732 0.023149
vn 0.000000 1.000000 0.000000
vn 0.000000 1.000000 0.000000
vn 0.000000 -1.000000 0.000000
vn 0.000000 -1.000000 0.000000
vn 0.000000 -0.999732 0.023132
vn 0.000000 -0.999732 0.023132
vn 0.999739 0.000000 0.022868
vn 1.000000 0.000000 0.000000
vn 1.000000 0.000000 0.000000
vn 0.999739 0.000000 0.022865
vn -1.000000 0.000000 0.000000
vn -0.999739 0.000000 0.022868
vn -0.999739 0.000000 0.022865
vn -1.000000 0.000000 0.000000
vn 0.000000 -0.382574 0.923925
vn 0.000000 -0.382574 0.923925
vn 0.000000 -0.923937 0.382546
vn 0.000000 -0.923937 0.382546
vn 0.382809 0.000000 0.923828
vn 0.382809 0.000000 0.923828
vn 0.923796 0.000000 0.382884
vn 0.923796 0.000000 0.382884
vn -0.923796 0.000000 0.382884
vn -0.923796 0.000000 0.382884
vn -0.382809 0.000000 0.923828
vn -0.382809 0.000000 0.923828
vn 0.000000 0.923842 0.382775
vn 0.000000 0.923842 0.382775
vn 0.000000 0.382669 0.923886
vn 0.000000 0.382669 0.923886
s off
g WindowandSIll
usemtl initialShadingGroup
f 1/137/1 2/138/2 4/139/3 3/140/4
f 3/69/5 4/70/6 6/71/7 5/72/8
f 5/141/9 6/142/10 8/143/11 7/144/12
f 7/73/13 8/74/14 2/75/15 1/76/16
f 2/1/17 8/2/18 6/3/19 4/4/20
f 7/5/21 1/6/22 3/7/23 5/8/24
f 9/145/25 10/146/26 12/147/27 11/148/28
f 11/77/29 12/78/30 14/79/31 13/80/32
f 13/149/33 14/150/34 16/151/35 15/152/36
f 15/81/37 16/82/38 10/83/39 9/84/40
f 10/9/41 16/10/42 14/11/43 12/12/44
f 15/13/45 9/14/46 11/15/47 13/16/48
f 17/153/49 18/154/50 20/155/51 19/156/52
f 19/85/53 20/86/54 22/87/55 21/88/56
f 21/157/57 22/158/58 24/159/59 23/160/60
f 23/89/61 24/90/62 18/91/63 17/92/64
f 18/17/65 24/18/66 22/19/67 20/20/68
f 23/21/69 17/22/70 19/23/71 21/24/72
s 1
f 25/161/73 26/162/74 27/163/75 28/164/76 29/165/77 30/166/78
f 28/164/76 27/163/75 31/167/79 25/161/73 30/166/78 32/168/80
s off
f 33/25/81 28/26/82 32/27/83 34/28/84
f 33/93/85 35/94/86 29/95/87 28/96/88
f 29/29/89 35/30/90 36/31/91 30/32/92
f 32/97/93 30/98/94 36/99/95 34/100/96
s 2
f 34/169/97 36/170/98 37/171/99 38/172/100 39/173/101 33/174/102
f 36/170/98 35/175/103 33/174/102 39/173/101 40/176/104 37/171/99
s off
f 25/101/105 31/102/106 38/103/107 37/104/108
f 26/33/109 25/34/110 37/35/111 40/36/112
f 39/37/113 38/38/114 31/39/115 27/40/116
f 40/105/117 39/106/118 27/107/119 26/108/120
f 41/177/121 42/178/122 44/179/123 43/180/124
f 43/41/125 44/42/126 46/43/127 45/44/128
f 45/181/129 46/182/130 48/183/131 47/184/132
f 47/45/133 48/46/134 42/47/135 41/48/136
f 42/109/137 48/110/138 46/111/139 44/112/140
f 47/113/141 41/114/142 43/115/143 45/116/144
f 49/185/145 50/186/146 52/187/147 51/188/148
f 51/49/149 52/50/150 54/51/151 53/52/152
f 53/189/153 54/190/154 56/191/155 55/192/156
f 55/53/157 56/54/158 50/55/159 49/56/160
f 50/117/161 56/118/162 54/119/163 52/120/164
f 55/121/165 49/122/166 51/123/167 53/124/168
f 57/193/169 58/194/170 60/195/171 59/196/172
s 3
f 61/197/173 64/198/174 70/199/175 67/200/176
s 4
f 69/125/177 72/126/178 58/127/179 57/128/180
s 5
f 59/131/181 60/132/182 66/133/183 63/134/184
s 6
f 66/57/185 60/58/186 58/59/187 72/60/188
s 7
f 59/63/189 63/64/190 69/65/191 57/66/192
s 3
f 61/197/173 62/201/193 65/202/194 64/198/174
s 5
f 62/135/195 63/134/184 66/133/183 65/136/196
s 3
f 64/198/174 65/202/197 71/203/198 70/199/175
s 6
f 65/61/199 66/57/185 72/60/188 71/62/200
s 7
f 63/64/190 62/67/201 68/68/202 69/65/191
s 3
f 62/201/203 61/197/173 67/200/176 68/204/204
s 4
f 69/125/177 68/129/205 71/130/206 72/126/178
s 3
f 68/204/207 67/200/176 70/199/175 71/203/208
